<svg width="12" height="16" viewBox="0 0 12 16" fill="none" xmlns="http://www.w3.org/2000/svg">
<path d="M9.53501 0H7.79081H6.00261L4.79468 7.46775C4.76905 7.47063 4.74342 7.47303 4.71731 7.47638C2.04855 7.82834 -0.0230177 10.0556 0.000193143 12.5476C0.00986432 13.5895 0.369149 14.4033 1.01132 15.0702C1.59159 15.673 2.38317 16 3.18153 16C3.49391 16 3.80725 15.9501 4.10948 15.847C5.54855 15.356 6.02534 14.1587 6.24971 13.0626C6.24923 13.064 6.24923 13.0655 6.24874 13.0664C6.31354 11.8432 5.65445 10.6358 4.39768 9.9204L4.00019 12.41C3.87253 13.1163 3.70667 13.5387 3.35029 13.66C3.13801 13.7324 2.87543 13.6576 2.69797 13.4735C2.46973 13.2362 2.33627 12.972 2.33191 12.526C2.32031 11.2807 3.30725 10.3035 4.39768 9.92088C4.73955 9.79861 5.09545 9.74059 5.49342 9.74059C5.89671 9.74059 6.32224 9.81779 6.70957 9.9463C6.70957 9.9463 6.70957 9.9463 6.70957 9.94678C6.70957 9.94678 6.70957 9.94678 6.70957 9.9463C8.18153 10.2906 9.07369 11.8394 9.29468 13.5157L9.42427 14.455H11.873L9.53501 0ZM7.0234 7.62887L7.72553 2.28482H7.74681H7.81209L8.59594 8.24886C8.09884 7.9789 7.56886 7.7684 7.0234 7.62887Z" fill="#FC5647"/>
<path d="M6.24803 13.0661C6.37134 12.5429 6.65761 10.5367 6.70838 9.94594C6.32105 9.81743 5.89552 9.74023 5.49223 9.74023C5.09474 9.74023 4.73836 9.79825 4.39648 9.92053C5.65374 10.6355 6.31283 11.8428 6.24803 13.0661Z" fill="#9B150A"/>
</svg>
