<?xml version="1.0" encoding="UTF-8"?>
<svg id="Layer_2" data-name="Layer 2" xmlns="http://www.w3.org/2000/svg" viewBox="0 0 5033.48 961.4">
  <defs>
    <style>
      .cls-1 {
        fill: #946a49;
      }

      .cls-2 {
        fill: #ede4e2;
      }
    </style>
  </defs>
  <g id="Layer_2-2" data-name="Layer 2">
    <g id="_ÎÓÈ_1" data-name=" ÎÓÈ 1">
      <g>
        <g>
          <path class="cls-1" d="M423.65,87.15c-45.92,5.56,6.69,55.3,6.69,55.3,0,0,39.22-60.85-6.69-55.3ZM427.88,122.13c-8.57,1.04-16.36-5.07-17.39-13.64s5.06-16.36,13.64-17.39,16.36,5.07,17.39,13.64-5.07,16.36-13.64,17.39Z"/>
          <path class="cls-1" d="M424.38,93.21c-7.41.9-12.68,7.62-11.78,15.01s7.62,12.68,15.02,11.78,12.67-7.62,11.77-15.02-7.62-12.67-15.01-11.77ZM427.37,117.84c-6.2.75-11.86-3.67-12.61-9.88s3.67-11.85,9.89-12.6,11.86,3.67,12.61,9.88-3.67,11.85-9.89,12.6h0Z"/>
          <path class="cls-1" d="M436.86,152.61c.35,2.88-1.7,5.49-4.58,5.84s-5.49-1.7-5.84-4.58,1.7-5.49,4.58-5.84,5.49,1.7,5.84,4.58Z"/>
        </g>
        <g>
          <path class="cls-1" d="M800.38,328.79c-45.92,5.56,6.69,55.3,6.69,55.3,0,0,39.22-60.85-6.69-55.3ZM804.61,363.78c-8.57,1.04-16.36-5.07-17.39-13.64s5.06-16.36,13.64-17.39,16.36,5.07,17.39,13.64c1.04,8.57-5.07,16.36-13.64,17.39Z"/>
          <path class="cls-1" d="M801.11,334.86c-7.41.9-12.68,7.62-11.78,15.01.9,7.4,7.62,12.68,15.02,11.78s12.67-7.62,11.77-15.02-7.62-12.67-15.01-11.77ZM804.1,359.5c-6.2.75-11.86-3.67-12.61-9.88-.75-6.2,3.67-11.85,9.89-12.6s11.86,3.67,12.61,9.88c.75,6.2-3.67,11.85-9.89,12.6Z"/>
          <path class="cls-1" d="M813.59,394.26c.35,2.88-1.7,5.49-4.58,5.84s-5.49-1.7-5.84-4.58,1.7-5.49,4.58-5.84,5.49,1.7,5.84,4.58Z"/>
        </g>
        <g>
          <path class="cls-1" d="M1354.97,803c-45.92,5.56,6.69,55.3,6.69,55.3,0,0,39.22-60.85-6.69-55.3ZM1359.2,837.99c-8.57,1.04-16.36-5.07-17.39-13.64s5.06-16.36,13.64-17.39c8.58-1.04,16.36,5.07,17.39,13.64,1.04,8.57-5.07,16.36-13.64,17.39Z"/>
          <path class="cls-1" d="M1355.7,809.07c-7.41.9-12.68,7.62-11.78,15.01.9,7.4,7.62,12.68,15.02,11.78,7.41-.9,12.67-7.62,11.77-15.02s-7.62-12.67-15.01-11.77ZM1358.69,833.71c-6.2.75-11.86-3.67-12.61-9.88s3.67-11.85,9.89-12.6c6.21-.75,11.86,3.67,12.61,9.88s-3.67,11.85-9.89,12.6Z"/>
          <path class="cls-1" d="M1368.18,868.47c.35,2.88-1.7,5.49-4.58,5.84s-5.49-1.7-5.84-4.58,1.7-5.49,4.58-5.84,5.49,1.7,5.84,4.58Z"/>
        </g>
        <g>
          <path class="cls-2" d="M9.39,31.14c-.83-.48-1.54-1.23-1.98-2.19C5.03,23.78,2.66,18.51.42,13.28c-1.12-2.59.08-5.69,2.66-6.92,2.58-1.23,5.59-.12,6.7,2.47,2.21,5.15,4.54,10.34,6.88,15.43,1.19,2.56.07,5.69-2.48,6.98-1.6.81-3.39.71-4.79-.11Z"/>
          <path class="cls-2" d="M278.71,327.77l-.02-.02c-2.94-1.73-5.86-3.49-8.77-5.27-6.71-4.11-13.46-8.41-20.05-12.77-2.32-1.54-2.92-4.75-1.33-7.17s4.8-3.1,7.09-1.6c6.49,4.3,13.14,8.53,19.76,12.59,2.85,1.75,5.73,3.48,8.62,5.18,2.4,1.41,3.15,4.58,1.68,7.08-1.46,2.49-4.59,3.37-6.98,1.97v.02ZM308.32,343.95c-2.29-1.33-3.13-4.31-1.87-6.79,1.31-2.59,4.39-3.66,6.88-2.41,10.32,5.17,20.54,9.76,30.4,13.67,2.6,1.02,3.81,4.03,2.72,6.71-1.1,2.68-4.09,4.02-6.68,2.99-10.13-4.01-20.62-8.73-31.18-14.02-.1-.05-.18-.1-.27-.15h0ZM582.13,500.06h0c-9.77-5.72-19.48-11.79-28.86-18.03-2.32-1.54-2.9-4.76-1.31-7.17,1.6-2.42,4.82-3.12,7.09-1.58,9.23,6.15,18.77,12.11,28.38,17.73,2.41,1.4,3.17,4.57,1.7,7.08-1.46,2.5-4.59,3.39-6.99,1.98h0ZM222.45,290.53c-.15-.09-.3-.18-.44-.29-9.07-6.69-18.12-13.69-26.87-20.84-2.16-1.76-2.45-5.03-.65-7.29s5.02-2.67,7.18-.91c8.63,7.04,17.54,13.95,26.49,20.55,2.24,1.65,2.69,4.89.99,7.24-1.59,2.2-4.49,2.83-6.7,1.55h0ZM611.73,516.24c-2.3-1.34-3.13-4.33-1.85-6.83,1.33-2.58,4.42-3.64,6.89-2.38,9.9,5.04,20.08,9.85,30.26,14.31,2.55,1.12,3.67,4.17,2.48,6.81-1.18,2.64-4.21,3.88-6.77,2.76-10.35-4.53-20.7-9.43-30.77-14.55-.09-.04-.16-.09-.25-.13h0ZM525.99,462.64c-.16-.1-.33-.21-.49-.32-9.05-6.83-17.97-14.02-26.55-21.35-2.12-1.82-2.34-5.09-.48-7.32,1.86-2.23,5.08-2.55,7.19-.74,8.43,7.2,17.2,14.27,26.09,20.98,2.23,1.68,2.63,4.93.9,7.25-1.6,2.16-4.48,2.77-6.66,1.49h0ZM371.14,368.53c-1.94-1.14-2.92-3.52-2.24-5.86.81-2.78,3.65-4.43,6.35-3.7,11.01,3,21.95,5.19,32.52,6.53,2.77.35,4.68,2.95,4.24,5.79-.44,2.85-3.05,4.87-5.83,4.52-11.02-1.4-22.41-3.68-33.86-6.79-.42-.11-.82-.28-1.18-.49h0ZM673.56,543.29c-2.09-1.22-3.03-3.86-2.09-6.28,1.04-2.7,4.01-4.11,6.62-3.14,10.46,3.86,21.14,7.46,31.75,10.68,2.68.81,4.11,3.7,3.23,6.46s-3.77,4.32-6.44,3.52c-10.8-3.28-21.67-6.94-32.31-10.87-.27-.1-.53-.22-.77-.36h0ZM170.13,247.84c-.28-.17-.56-.37-.81-.6-8.4-7.57-16.72-15.44-24.72-23.41-1.98-1.97-1.97-5.26.04-7.35,2-2.09,5.23-2.18,7.21-.22,7.9,7.85,16.1,15.62,24.38,23.08,2.07,1.87,2.21,5.15.3,7.33-1.67,1.91-4.36,2.34-6.39,1.16h0ZM474.69,418.73c-.34-.19-.65-.44-.94-.71-3.39-3.29-6.79-6.66-10.09-10.03-4.77-4.87-9.36-9.78-13.65-14.57-1.86-2.08-1.67-5.38.44-7.35,2.11-1.97,5.33-1.88,7.2.21,4.19,4.68,8.68,9.48,13.35,14.24,3.24,3.31,6.57,6.63,9.91,9.85,2.01,1.94,2.03,5.23.05,7.35-1.69,1.81-4.29,2.17-6.27,1.02h0ZM738.25,562.94c-1.9-1.1-2.88-3.41-2.28-5.72.73-2.8,3.53-4.54,6.25-3.89,10.87,2.6,21.94,4.89,32.88,6.81,2.76.48,4.53,3.17,3.97,6s-3.27,4.73-6.02,4.24c-11.13-1.95-22.4-4.28-33.46-6.93-.48-.11-.92-.29-1.32-.52h0ZM122.17,200.16c-.42-.24-.8-.56-1.15-.93-7.63-8.37-15.16-17.04-22.36-25.77-1.78-2.16-1.45-5.44.72-7.33,2.18-1.9,5.39-1.68,7.17.48,7.09,8.6,14.52,17.15,22.04,25.41,1.88,2.07,1.72,5.35-.38,7.35-1.71,1.63-4.17,1.89-6.05.79h0ZM438.29,376.69c-1.46-.85-2.44-2.43-2.47-4.31-.03-2.87,2.22-5.3,5.03-5.42,11.02-.51,22.04-2.19,32.76-5,2.75-.72,5.47.95,6.08,3.73s-1.11,5.61-3.87,6.33c-11.41,2.98-23.14,4.78-34.86,5.32-.98.05-1.91-.19-2.7-.65h.02ZM429.82,368.05c-.56-.33-1.07-.78-1.49-1.35-7.13-9.79-13.37-19.66-18.54-29.29-1.33-2.48-.4-5.66,2.08-7.1,2.48-1.44,5.57-.59,6.91,1.88,4.96,9.24,10.96,18.71,17.82,28.14,1.65,2.27,1.14,5.53-1.14,7.29-1.71,1.32-3.93,1.42-5.63.43h0ZM805,574.61c-1.69-.98-2.7-2.96-2.41-5.1.4-2.85,2.98-4.91,5.77-4.61,5.32.59,10.71,1.1,16.02,1.53,5.82.46,11.73.84,17.55,1.1,2.81.13,4.9,2.56,4.68,5.43-.22,2.87-2.68,5.09-5.48,4.95-5.94-.27-11.95-.65-17.89-1.13-5.41-.43-10.9-.96-16.32-1.56-.7-.08-1.35-.3-1.92-.63v.02ZM79.04,147.89c-.55-.33-1.05-.76-1.46-1.3-6.79-9.12-13.43-18.52-19.74-27.94-1.56-2.33-.93-5.58,1.42-7.25s5.51-1.13,7.07,1.2c6.21,9.28,12.76,18.54,19.45,27.53,1.67,2.25,1.19,5.52-1.07,7.3-1.71,1.35-3.95,1.47-5.68.47h0ZM398.22,307.93c-1.02-.59-1.83-1.56-2.22-2.79-3.7-11.71-5.96-23.49-6.69-35-.18-2.86,1.94-5.4,4.75-5.68,2.81-.29,5.23,1.8,5.42,4.65.69,10.67,2.79,21.63,6.24,32.55.85,2.71-.63,5.68-3.32,6.64-1.46.53-2.97.35-4.18-.36h0ZM872.95,577.74c-1.5-.88-2.49-2.53-2.46-4.45.05-2.87,2.37-5.24,5.18-5.29,11.22-.21,22.58-.78,33.77-1.7,2.81-.23,5.2,1.9,5.33,4.76s-2.04,5.36-4.85,5.6c-11.41.94-22.98,1.52-34.41,1.74-.94.01-1.81-.22-2.56-.66h0ZM41.26,91.42c-.69-.4-1.29-.98-1.73-1.72-5.86-9.81-11.53-19.87-16.84-29.91-1.32-2.49-.36-5.67,2.12-7.1,2.49-1.43,5.57-.57,6.89,1.93,5.23,9.88,10.81,19.8,16.58,29.46,1.44,2.41.65,5.63-1.77,7.18-1.67,1.08-3.7,1.07-5.26.16ZM504.31,359.24c-.82-.48-1.52-1.22-1.96-2.15-1.21-2.55-.11-5.69,2.43-7,10.25-5.29,19.5-11.64,27.51-18.87,2.14-1.93,5.36-1.78,7.18.34s1.57,5.41-.57,7.34c-8.69,7.85-18.71,14.72-29.77,20.43-1.6.83-3.41.73-4.83-.09h0ZM941.04,572.11c-1.31-.76-2.25-2.12-2.43-3.79-.31-2.84,1.7-5.47,4.5-5.89,11.15-1.64,22.4-3.67,33.44-6.03,2.77-.59,5.41,1.21,5.9,4.01.49,2.81-1.36,5.56-4.14,6.16-11.24,2.4-22.71,4.47-34.08,6.14-1.16.17-2.27-.07-3.2-.61h0ZM395.4,239.66c-1.92-1.12-2.91-3.47-2.26-5.79,2.63-9.49,6.45-18.6,11.37-27.05,1.25-2.15,2.58-4.25,3.94-6.27,1.62-2.4,4.76-3.08,7.1-1.5,2.31,1.57,2.86,4.79,1.23,7.19-1.23,1.82-2.42,3.72-3.56,5.66-4.44,7.64-7.91,15.88-10.29,24.47-.77,2.78-3.59,4.48-6.3,3.79-.45-.12-.86-.29-1.25-.5h.02ZM554.98,312.52c-2.39-1.39-3.18-4.53-1.74-7.04,3.75-6.55,6.69-13.49,8.73-20.64.95-3.3,1.67-6.75,2.15-10.24.39-2.86,2.97-4.92,5.76-4.63,2.79.3,4.73,2.85,4.35,5.71-.54,4-1.37,7.95-2.46,11.75-2.29,7.98-5.57,15.73-9.75,23.04-1.44,2.51-4.57,3.43-6.98,2.05l-.03-.02h-.02ZM1008.16,557.76c-1.12-.65-1.98-1.74-2.31-3.13-.67-2.76,1.01-5.63,3.75-6.41,10.92-3.08,21.86-6.56,32.53-10.34,2.69-.95,5.55.48,6.39,3.18.84,2.71-.65,5.67-3.34,6.63-10.88,3.85-22.04,7.4-33.17,10.54-1.36.39-2.73.18-3.84-.47h0ZM434.27,183.03c-.64-.38-1.21-.9-1.64-1.56-1.52-2.35-.85-5.6,1.51-7.23,10.45-7.24,21.83-11.9,33.85-13.85,2.8-.46,5.35,1.47,5.69,4.31s-1.63,5.5-4.42,5.95c-10.48,1.7-20.44,5.79-29.59,12.12-1.69,1.17-3.79,1.2-5.41.26h0ZM564.43,245.31c-1.12-.65-1.97-1.74-2.31-3.1-2.58-10.47-6.85-20.53-12.68-29.92-1.49-2.39-.75-5.61,1.65-7.21,2.39-1.6,5.54-.95,7.01,1.44,6.39,10.29,11.07,21.34,13.91,32.85.68,2.76-.98,5.64-3.72,6.42-1.37.4-2.75.19-3.87-.46h0ZM1073.19,534.7c-.93-.54-1.68-1.39-2.1-2.49-1.02-2.64.28-5.69,2.9-6.83,10.49-4.52,20.92-9.45,31.01-14.64,2.54-1.31,5.58-.3,6.78,2.25,1.21,2.55.11,5.69-2.44,6.99-10.3,5.3-20.95,10.33-31.65,14.94-1.53.66-3.18.52-4.49-.24h0ZM499.62,172.3c-1.99-1.16-2.96-3.63-2.2-6.01.89-2.75,3.78-4.33,6.45-3.51,10.97,3.35,21.61,9.16,31.1,17.02,2.15,1.77,2.41,5.05.6,7.3-1.82,2.26-5.03,2.63-7.19.86-8.51-7.04-17.99-12.24-27.74-15.21-.37-.12-.72-.27-1.03-.45h0ZM1134.84,502.95c-.73-.43-1.36-1.04-1.8-1.84-1.37-2.45-.5-5.65,1.95-7.14,9.82-5.95,19.5-12.31,28.78-18.89,2.35-1.66,5.52-1.12,7.07,1.22s.91,5.58-1.44,7.25c-9.48,6.73-19.38,13.22-29.42,19.31-1.66,1.01-3.62.97-5.14.09h0ZM1191.63,462.64c-.52-.3-.98-.71-1.38-1.2-1.73-2.21-1.33-5.48.89-7.32,8.94-7.41,17.57-15.17,25.65-23.07,2.06-2.02,5.3-2,7.21.03s1.79,5.33-.27,7.35c-8.29,8.11-17.14,16.08-26.32,23.67-1.71,1.42-4.02,1.56-5.78.55h0ZM1241.52,413.69c-.26-.16-.52-.34-.76-.54-2.1-1.84-2.28-5.11-.4-7.32,7.58-8.9,14.65-18.11,21.01-27.36,1.65-2.38,4.83-3.01,7.11-1.43,2.29,1.6,2.81,4.82,1.16,7.21-6.57,9.55-13.87,19.05-21.68,28.24-1.66,1.95-4.38,2.41-6.44,1.21h0ZM1281.07,355.92c-2.33-1.35-3.15-4.38-1.82-6.88,5.44-10.28,10.19-20.82,14.12-31.3,1.01-2.71,3.96-4.15,6.59-3.21,2.62.93,3.94,3.91,2.93,6.62-4.09,10.93-9.03,21.9-14.7,32.59-1.35,2.56-4.45,3.58-6.93,2.29-.06-.03-.13-.06-.18-.1h-.01ZM1305.4,290.43c-1.82-1.06-2.82-3.25-2.34-5.5,1.28-5.83,2.33-11.76,3.14-17.62.72-5.26,1.24-10.66,1.54-16.03.16-2.87,2.56-5.14,5.38-5.08,2.81.06,4.96,2.44,4.8,5.31-.31,5.67-.85,11.36-1.62,16.91-.85,6.15-1.95,12.35-3.29,18.46-.62,2.82-3.34,4.68-6.09,4.14-.56-.1-1.06-.3-1.52-.57h0ZM1038.08,83.46c-.44-.26-.86-.59-1.22-1.01-1.84-2.1-1.61-5.4.52-7.35,8.67-7.94,18.72-14.81,29.85-20.42,2.55-1.29,5.59-.25,6.77,2.31s.06,5.68-2.5,6.98c-10.27,5.17-19.5,11.49-27.45,18.76-1.71,1.57-4.13,1.79-5.98.72h0ZM1309.22,221.28c-1.31-.76-2.25-2.12-2.43-3.79-1.21-11.1-3.32-22.23-6.26-33.06-.74-2.74.86-5.65,3.57-6.51,2.72-.85,5.52.68,6.27,3.42,3.08,11.35,5.28,23,6.55,34.65.31,2.84-1.7,5.47-4.5,5.89-1.16.17-2.27-.07-3.2-.61h0ZM1099.1,52.09c-1.18-.68-2.07-1.86-2.36-3.33-.56-2.79,1.23-5.6,3.99-6.25,11.35-2.73,23.11-4.28,34.93-4.59,2.81-.07,5.08,2.19,5.05,5.06s-2.33,5.26-5.14,5.33c-11.12.3-22.17,1.75-32.83,4.32-1.3.31-2.6.09-3.65-.53ZM1291.31,155.17c-.86-.5-1.56-1.26-2-2.25-4.57-10.21-9.96-20.01-16-29.13-1.55-2.34-.9-5.58,1.45-7.25s5.51-1.11,7.06,1.23c6.34,9.57,11.98,19.85,16.78,30.56,1.16,2.58,0,5.69-2.56,6.96-1.59.79-3.34.68-4.73-.13ZM1166.83,50.26c-1.81-1.05-2.81-3.22-2.34-5.46.6-2.82,3.3-4.7,6.06-4.2,11.61,2.14,22.84,5.52,33.37,10.04,2.58,1.11,3.69,4.15,2.52,6.8-1.17,2.65-4.19,3.91-6.75,2.8-9.86-4.24-20.39-7.4-31.28-9.41-.57-.1-1.09-.3-1.57-.58h0ZM1253.85,98.81c-.39-.22-.76-.51-1.08-.86-7.63-8.01-15.95-15.25-24.74-21.53-2.27-1.62-2.75-4.85-1.09-7.22,1.67-2.37,4.91-2.95,7.13-1.36,9.3,6.64,18.08,14.29,26.13,22.75,1.93,2.02,1.82,5.31-.23,7.35-1.71,1.69-4.22,1.98-6.13.87h0Z"/>
          <path class="cls-2" d="M1009.29,127.1c-1.46-.85-2.43-2.45-2.46-4.28-.09-5.39-.69-10.83-1.78-16.15-.57-2.79,1.2-5.59,3.95-6.28,2.53-.63,5.02.77,5.85,3.17,1.52-2.1,4.32-2.83,6.57-1.61,2.45,1.33,3.31,4.46,1.93,7.01-2.63,4.83-4.85,9.92-6.61,15.13-.82,2.41-3.18,3.93-5.63,3.62-.66-.08-1.29-.3-1.83-.62h0Z"/>
          <path class="cls-2" d="M1187.85,834.23h0c-9.54-5.6-19.13-11.41-28.51-17.3-2.36-1.48-3.03-4.67-1.5-7.13s4.68-3.26,7.05-1.77c9.31,5.82,18.82,11.59,28.27,17.14,2.41,1.41,3.16,4.58,1.7,7.08s-4.59,3.39-6.99,1.98h0ZM1216.74,850.59c-2.36-1.38-3.16-4.45-1.79-6.96,1.4-2.54,4.51-3.52,6.96-2.17,9.62,5.27,19.47,10.46,29.24,15.44,2.49,1.28,3.42,4.38,2.1,6.96-1.33,2.58-4.41,3.64-6.89,2.38-9.85-5.02-19.78-10.26-29.49-15.57-.03-.03-.08-.04-.11-.07h-.01ZM1131.58,798.98c-.09-.05-.17-.1-.26-.16-9.21-6.15-18.45-12.52-27.45-18.93-2.27-1.62-2.76-4.85-1.11-7.22,1.67-2.38,4.86-2.98,7.13-1.37,8.94,6.35,18.09,12.67,27.22,18.78,2.31,1.55,2.9,4.77,1.3,7.18-1.54,2.32-4.54,3.07-6.83,1.73h0ZM1275.9,880.72c-2.24-1.31-3.11-4.21-1.92-6.69,1.26-2.61,4.31-3.76,6.83-2.57,9.93,4.69,20.06,9.29,30.11,13.66,2.56,1.12,3.68,4.16,2.5,6.81-1.18,2.64-4.2,3.88-6.77,2.77-10.14-4.42-20.37-9.06-30.38-13.79-.13-.07-.26-.13-.38-.2h0ZM1077.46,760.47c-.17-.1-.34-.21-.49-.32-8.83-6.68-17.68-13.58-26.31-20.52-2.18-1.75-2.49-5.01-.7-7.29s5-2.72,7.18-.96c8.56,6.88,17.33,13.73,26.08,20.34,2.23,1.68,2.63,4.93.9,7.25-1.6,2.16-4.48,2.77-6.66,1.49h0ZM1336.8,907.26c-2.13-1.24-3.05-3.96-2.05-6.41,1.11-2.67,4.1-4.01,6.69-2.98,10.21,4.08,20.62,8.06,30.9,11.81,2.61.95,3.91,3.93,2.89,6.63-1.02,2.7-3.98,4.13-6.61,3.17-10.38-3.79-20.88-7.8-31.19-11.92-.22-.09-.44-.2-.64-.32h0ZM1025.67,718.84c-.25-.14-.49-.31-.72-.51-8.45-7.22-16.88-14.63-25.07-22.05-2.07-1.87-2.2-5.15-.28-7.33s5.13-2.41,7.21-.54c8.12,7.36,16.48,14.72,24.86,21.86,2.12,1.81,2.34,5.09.49,7.31-1.65,1.99-4.4,2.47-6.48,1.26h-.01ZM1399.26,930.03c-2.03-1.19-2.99-3.72-2.15-6.12.95-2.73,3.87-4.25,6.51-3.37,10.45,3.45,21.09,6.77,31.61,9.87,2.66.78,4.15,3.67,3.28,6.42-.86,2.76-3.74,4.35-6.42,3.57-10.61-3.14-21.35-6.48-31.9-9.96-.33-.11-.63-.25-.93-.42h0ZM976.4,674.18c-.33-.19-.65-.43-.93-.7-8-7.69-15.98-15.61-23.73-23.54-1.95-2-1.9-5.29.13-7.35,2.03-2.06,5.26-2.11,7.21-.12,7.68,7.85,15.6,15.7,23.52,23.33,2.02,1.93,2.04,5.22.08,7.34-1.68,1.82-4.3,2.18-6.28,1.03ZM1463.09,948.86c-1.93-1.12-2.91-3.49-2.25-5.81.78-2.78,3.61-4.47,6.31-3.77,10.67,2.78,21.51,5.43,32.2,7.84,2.72.62,4.37,3.39,3.67,6.19s-3.48,4.57-6.2,3.95c-10.8-2.44-21.74-5.11-32.52-7.92-.44-.12-.85-.28-1.22-.51v.02ZM929.85,626.6c-.41-.24-.79-.55-1.13-.91-7.54-8.18-15.03-16.58-22.29-24.96-1.83-2.12-1.58-5.4.55-7.34,2.14-1.94,5.36-1.8,7.19.32,7.19,8.31,14.62,16.62,22.09,24.74,1.89,2.06,1.74,5.35-.34,7.34-1.7,1.65-4.19,1.91-6.07.81h0ZM886.24,576.2c-.5-.29-.95-.67-1.33-1.14-7.04-8.67-14.01-17.52-20.72-26.34-1.7-2.23-1.25-5.5.99-7.31,2.25-1.8,5.44-1.46,7.14.77,6.65,8.73,13.56,17.52,20.53,26.1,1.76,2.17,1.42,5.46-.78,7.33-1.72,1.47-4.05,1.64-5.84.61h0ZM845.8,523.09c-.59-.34-1.1-.8-1.52-1.39-6.48-9.11-12.89-18.42-19.03-27.67-1.55-2.34-.91-5.58,1.44-7.25,2.35-1.66,5.52-1.12,7.07,1.22,6.09,9.17,12.43,18.38,18.86,27.4,1.63,2.28,1.08,5.55-1.21,7.28-1.71,1.29-3.9,1.38-5.59.39h0ZM808.8,467.38c-.67-.39-1.25-.95-1.69-1.66-5.89-9.53-11.68-19.27-17.21-28.93-1.39-2.44-.55-5.64,1.89-7.15s5.56-.75,6.95,1.69c5.48,9.57,11.21,19.21,17.03,28.64,1.48,2.39.73,5.61-1.67,7.2-1.68,1.11-3.73,1.13-5.31.2h0ZM775.53,409.2c-.76-.44-1.41-1.11-1.87-1.95-2.13-4.04-4.23-8.1-6.31-12.17-3.11-6.1-6.1-12.14-8.9-17.97-1.22-2.54-.15-5.68,2.38-7.02s5.58-.35,6.8,2.19c2.77,5.76,5.73,11.73,8.8,17.76,2.05,4.02,4.14,8.04,6.24,12.04,1.32,2.49.36,5.67-2.12,7.1-1.64.94-3.54.88-5.02.02h0ZM746.52,348.6c-.88-.52-1.61-1.31-2.05-2.34-4.56-10.77-8.71-21.43-12.34-31.69-.95-2.67.44-5.68,3.09-6.74s5.57.25,6.51,2.93c3.56,10.07,7.63,20.53,12.12,31.11,1.1,2.61-.11,5.69-2.7,6.9-1.56.73-3.28.61-4.63-.17h0ZM724.2,284.98c-1.07-.63-1.91-1.67-2.28-2.99-3.09-11.35-5.62-22.63-7.53-33.51-.49-2.81,1.35-5.57,4.13-6.17,2.77-.6,5.42,1.19,5.91,4,1.85,10.57,4.32,21.54,7.32,32.59.74,2.74-.86,5.65-3.56,6.51-1.41.44-2.83.24-3.99-.42h0ZM712.69,218.19c-1.38-.8-2.34-2.27-2.45-4.02-.76-11.78-.78-23.5-.06-34.81.19-2.87,2.61-5.12,5.41-5.04,2.81.09,4.93,2.49,4.76,5.36-.69,10.87-.68,22.12.06,33.47.18,2.86-1.95,5.4-4.75,5.68-1.08.11-2.11-.13-2.97-.64h0ZM717.48,150.11c-1.84-1.07-2.83-3.28-2.32-5.54,2.61-11.48,6.18-22.81,10.62-33.67,1.1-2.68,4.09-4.02,6.68-2.99,2.59,1.04,3.81,4.03,2.72,6.71-4.21,10.31-7.6,21.08-10.08,31.98-.64,2.82-3.39,4.65-6.12,4.09-.54-.11-1.03-.3-1.48-.57h-.01ZM743.51,86.57s-.1-.06-.14-.08c-2.36-1.48-3.03-4.68-1.5-7.13,6.36-10.2,13.58-19.69,21.45-28.24,1.96-2.13,5.19-2.28,7.21-.36,2.03,1.93,2.07,5.21.11,7.34-7.42,8.04-14.22,17-20.23,26.62-1.5,2.41-4.57,3.22-6.91,1.85h0ZM790.05,36.42c-.63-.36-1.17-.88-1.6-1.52-1.56-2.34-.92-5.58,1.43-7.24,9.71-6.91,20.1-12.66,30.87-17.08,2.64-1.08,5.57.19,6.55,2.84.98,2.66-.37,5.69-3.01,6.78-10.03,4.12-19.71,9.49-28.77,15.92-1.7,1.2-3.83,1.26-5.46.31h-.01ZM852.43,10.9c-1.32-.77-2.27-2.15-2.44-3.83-.28-2.85,1.76-5.46,4.55-5.85,11.19-1.55,22.87-1.62,34.72-.21,2.78.33,4.7,2.91,4.28,5.76s-3.01,4.9-5.8,4.57c-11.01-1.31-21.83-1.24-32.17.19-1.15.16-2.24-.08-3.16-.62h.02ZM995.18,78.73c-.69-.41-1.31-.99-1.74-1.74-5.24-8.87-11.94-17.3-19.89-25.02-2.01-1.94-2.02-5.23-.05-7.35,1.98-2.11,5.21-2.24,7.21-.3,8.58,8.33,15.82,17.45,21.51,27.08,1.43,2.43.62,5.64-1.8,7.18-1.67,1.06-3.68,1.05-5.23.15h0ZM918.24,18.27c-2.06-1.2-3.01-3.8-2.12-6.21,1-2.72,3.94-4.17,6.58-3.24,10.75,3.78,21.16,8.7,30.88,14.63,2.38,1.44,3.1,4.63,1.6,7.11-1.49,2.45-4.58,3.29-6.95,1.92-.02-.02-.05-.03-.09-.05-9.15-5.56-18.93-10.2-29.05-13.76-.29-.11-.57-.23-.84-.38h0Z"/>
        </g>
      </g>
    </g>
    <g id="_ÎÓÈ_1-2" data-name=" ÎÓÈ 1">
      <g>
        <path class="cls-2" d="M2690.66,933.38c-3.05.38-6.17.63-9.25.75-2.76.11-5.09-2.04-5.2-4.8-.11-2.76,2.04-5.12,4.8-5.2,10.69-.43,21.23-2.55,30.73-6.21,2.59-1,5.48.29,6.46,2.87,1,2.58-.29,5.48-2.87,6.46-7.77,3-16.07,5.05-24.68,6.12h0ZM2648.99,930.53c-.61.08-1.24.03-1.87-.13-11.48-2.99-22.15-7.61-31.73-13.71-2.33-1.48-3.02-4.58-1.53-6.91,1.48-2.33,4.57-3.02,6.91-1.53,8.7,5.54,18.42,9.73,28.88,12.47,2.68.7,4.28,3.43,3.58,6.11-.53,2.05-2.26,3.46-4.23,3.7h0ZM2742.19,910.23c-1.57.19-3.2-.36-4.33-1.62-1.85-2.05-1.68-5.21.37-7.06,7.69-6.92,14.36-15.16,19.79-24.46,1.4-2.38,4.45-3.19,6.85-1.79,2.39,1.39,3.2,4.46,1.79,6.85-5.95,10.2-13.27,19.23-21.73,26.85-.79.71-1.74,1.12-2.73,1.25h0ZM2594.56,895.03c-1.75.22-3.55-.5-4.67-2.03-6.09-8.4-10.49-17.68-13.05-27.6-.38-1.47-.72-2.95-1.03-4.42-.56-2.71,1.18-5.36,3.89-5.91,2.66-.56,5.35,1.18,5.91,3.89.27,1.32.58,2.63.91,3.93,2.25,8.7,6.11,16.85,11.46,24.22,1.62,2.23,1.12,5.36-1.11,6.98-.71.52-1.51.81-2.32.92h0ZM2775.53,854.03c-.62.07-1.26.04-1.9-.13-2.67-.72-4.26-3.45-3.55-6.13,2.7-10.14,4.2-20.75,4.45-31.57.06-2.77,2.37-4.95,5.12-4.88,2.77.06,4.95,2.36,4.88,5.12-.28,11.61-1.89,23.02-4.79,33.91-.54,2.03-2.26,3.44-4.22,3.68ZM1998.44,910.55c-2.69.34-5.16-1.55-5.57-4.23-.4-2.73,1.49-5.28,4.22-5.67,10.31-1.51,21.13-3.55,32.19-6.04,2.68-.6,5.37,1.08,5.98,3.78.61,2.7-1.08,5.37-3.78,5.98-11.3,2.55-22.38,4.63-32.94,6.18-.04,0-.08,0-.12.01h0ZM1965.49,913.86c-.12.02-.25.03-.37.03-11.54.58-22.88.51-33.7-.22-2.76-.18-4.85-2.57-4.66-5.32.18-2.76,2.57-4.83,5.32-4.66,10.44.7,21.38.77,32.53.21,2.76-.14,5.11,1.99,5.25,4.75.13,2.64-1.8,4.9-4.38,5.21h0ZM1602.47,954.5c-2.73.34-5.22-1.59-5.58-4.33-.36-2.74,1.58-5.25,4.32-5.6,10.89-1.41,21.89-2.96,32.69-4.63,2.67-.4,5.29,1.45,5.7,4.18.42,2.73-1.45,5.29-4.18,5.7-10.88,1.67-21.96,3.24-32.93,4.66h-.02s0,.01,0,.01ZM1569.55,958.34s-.07,0-.09.01c-11,1.14-22.14,2.16-33.13,3.04-2.75.22-5.16-1.83-5.38-4.59-.22-2.75,1.81-5.16,4.59-5.38,10.89-.86,21.96-1.87,32.88-3.01,2.74-.29,5.21,1.71,5.5,4.46.28,2.72-1.66,5.15-4.36,5.48h0ZM2063.09,896.15c-2.4.3-4.73-1.19-5.41-3.58-.76-2.65.77-5.43,3.42-6.19,5.47-1.58,11.13-3.29,16.82-5.08,4.83-1.52,9.74-3.12,14.61-4.75,2.63-.89,5.45.53,6.33,3.15.88,2.62-.53,5.45-3.15,6.33-4.92,1.65-9.89,3.27-14.77,4.8-5.76,1.82-11.5,3.55-17.05,5.16-.26.08-.52.13-.78.16h0ZM2580.78,831.99c-.46.06-.93.05-1.41-.02-2.73-.43-4.59-3-4.14-5.73,1.77-11.04,5.32-22.08,10.56-32.83,1.21-2.48,4.21-3.51,6.69-2.31,2.48,1.21,3.51,4.21,2.31,6.69-4.8,9.87-8.05,19.97-9.67,30.03-.36,2.25-2.17,3.91-4.32,4.18h-.02ZM1667.96,944.41c-2.62.33-5.06-1.46-5.53-4.08-.49-2.72,1.32-5.32,4.04-5.8,10.83-1.94,21.73-4.05,32.41-6.24,2.74-.57,5.35,1.19,5.9,3.9.56,2.71-1.19,5.35-3.9,5.9-10.77,2.21-21.75,4.32-32.67,6.28-.1.02-.18.04-.28.05h.01ZM1732.87,931.1c-2.51.31-4.89-1.32-5.48-3.84-.62-2.69,1.05-5.37,3.75-5.99,7.37-1.7,14.81-3.49,22.12-5.31,3.3-.82,6.61-1.66,9.92-2.53,2.67-.69,5.41.9,6.11,3.57s-.9,5.41-3.57,6.11c-3.35.88-6.7,1.73-10.04,2.56-7.37,1.83-14.87,3.63-22.29,5.34-.17.04-.34.07-.52.09h-.01ZM1899.55,909.22c-.53.07-1.08.04-1.63-.07-5.55-1.15-11.08-2.53-16.46-4.08s-10.8-3.4-16.11-5.5c-2.57-1.01-3.84-3.92-2.81-6.49,1.01-2.57,3.92-3.84,6.49-2.81,5.03,1.98,10.14,3.72,15.22,5.2,5.14,1.48,10.42,2.8,15.73,3.9,2.71.57,4.45,3.21,3.88,5.92-.45,2.15-2.21,3.69-4.28,3.95h0ZM2125.91,875.12c-2.24.27-4.46-1-5.29-3.2-.97-2.58.32-5.47,2.91-6.44,10.22-3.86,20.51-7.99,30.59-12.24,2.56-1.08,5.48.12,6.55,2.65,1.08,2.55-.12,5.48-2.65,6.55-10.2,4.31-20.61,8.48-30.95,12.39-.38.14-.78.24-1.16.28h0ZM1796.91,914.06c-2.35.29-4.63-1.12-5.37-3.45-.84-2.63.62-5.45,3.25-6.29,11.13-3.55,21.21-7.17,30.83-11.06,2.56-1.04,5.48.19,6.52,2.76,1.04,2.56-.19,5.48-2.76,6.52-9.85,4-20.17,7.7-31.56,11.32-.3.1-.61.17-.91.2h.01ZM2777.21,788.35c-2.57.32-4.98-1.39-5.51-3.96-2.17-10.6-5.53-20.79-9.98-30.29-1.18-2.5-.09-5.48,2.4-6.65,2.49-1.18,5.47-.1,6.65,2.4,4.79,10.2,8.39,21.15,10.72,32.52.55,2.7-1.19,5.35-3.9,5.9-.13.03-.27.05-.4.07h0ZM2186.95,849.33c-2.09.26-4.2-.84-5.15-2.84-1.17-2.5-.09-5.48,2.41-6.65,9.94-4.65,19.89-9.54,29.57-14.53,2.45-1.27,5.47-.3,6.74,2.16,1.27,2.45.3,5.47-2.15,6.73-9.79,5.05-19.86,9.99-29.91,14.7-.5.23-.99.37-1.51.44h0ZM1858.14,888.86c-1.99.24-4.01-.73-5.02-2.6-1.31-2.44-.39-5.47,2.04-6.78,9.91-5.32,19.15-11.11,27.45-17.22,2.22-1.64,5.35-1.16,6.99,1.06,1.64,2.23,1.16,5.35-1.07,6.99-8.68,6.39-18.32,12.43-28.65,17.98-.56.3-1.16.48-1.74.56h0ZM1838.22,884.98c-1.09.14-2.24-.09-3.26-.71-9.69-6.02-18.82-12.91-27.16-20.47-2.04-1.86-2.2-5.03-.34-7.07s5.02-2.2,7.07-.34c7.87,7.16,16.53,13.67,25.71,19.38,2.34,1.46,3.07,4.54,1.61,6.89-.83,1.33-2.19,2.14-3.64,2.32h0ZM2245.87,819c-1.95.24-3.94-.69-4.98-2.51-1.35-2.41-.5-5.45,1.89-6.81,3.55-2.01,7.08-4.03,10.61-6.08,5.74-3.34,11.57-6.82,17.79-10.63,2.36-1.44,5.44-.7,6.88,1.66s.7,5.44-1.66,6.88c-6.29,3.85-12.18,7.36-17.98,10.74-3.57,2.08-7.14,4.13-10.73,6.15-.59.33-1.21.53-1.85.61h.02ZM2609.01,772.9c-1.34.17-2.74-.21-3.85-1.15-2.11-1.79-2.37-4.94-.58-7.05,4.4-5.18,9.17-10.06,14.2-14.5,3.42-3.02,7.07-5.98,10.84-8.79,2.22-1.65,5.35-1.2,7,1.02s1.2,5.35-1.02,7c-3.55,2.65-6.98,5.43-10.2,8.27-4.67,4.12-9.11,8.64-13.19,13.46-.84,1-1.99,1.58-3.2,1.73h0ZM3215.09,691.24c-.53.07-1.08.04-1.64-.08-10.71-2.25-21.6-4.34-32.38-6.24-2.73-.48-4.53-3.07-4.06-5.79.48-2.73,3.06-4.54,5.79-4.06,10.88,1.91,21.89,4.04,32.7,6.3,2.71.57,4.43,3.21,3.87,5.92-.45,2.14-2.22,3.68-4.29,3.94h0ZM1911.06,849.45c-1.43.18-2.94-.27-4.06-1.34-2-1.9-2.08-5.07-.18-7.07,4.67-4.93,9.05-10.14,13-15.51,2.28-3.1,4.45-6.39,6.43-9.79,1.4-2.38,4.46-3.18,6.85-1.79,2.39,1.39,3.2,4.46,1.79,6.85-2.16,3.7-4.53,7.3-7.02,10.68-4.2,5.7-8.85,11.24-13.81,16.47-.83.87-1.9,1.38-3.01,1.52h0ZM2302.49,784.57c-1.86.23-3.75-.6-4.82-2.27-1.49-2.33-.82-5.42,1.51-6.92,8.54-5.47,17.05-11,25.56-16.54l2.24-1.45c2.31-1.5,5.42-.84,6.92,1.47,1.51,2.31.84,5.42-1.47,6.92l-2.24,1.45c-8.52,5.54-17.05,11.08-25.62,16.57-.65.42-1.36.66-2.08.76h0ZM3149.83,679.78c-.43.05-.88.05-1.32-.01-10.83-1.54-21.83-2.92-32.72-4.11-2.74-.3-4.73-2.77-4.43-5.51.3-2.74,2.77-4.73,5.51-4.43,11,1.2,22.11,2.6,33.04,4.15,2.73.39,4.64,2.92,4.24,5.66-.33,2.29-2.15,4-4.34,4.26h0ZM2749.29,728.96c-1.67.21-3.4-.43-4.53-1.84-5.28-6.61-11.22-12.88-17.71-18.68-1.01.29-2.01.58-3.02.88-2.63.77-5.43-.74-6.2-3.4-.7-2.39.46-4.88,2.63-5.91.08-.98.46-1.94,1.13-2.75,1.77-2.13,4.92-2.42,7.04-.66.3.24.59.49.88.74.46-.14.93-.26,1.39-.4,7.42-2.08,14.98-4.09,22.46-5.99,2.65-.66,5.39.94,6.08,3.61.68,2.68-.94,5.39-3.61,6.08-5.83,1.48-11.69,3.03-17.5,4.61,5.12,4.94,9.88,10.16,14.24,15.6,1.72,2.16,1.37,5.3-.79,7.03-.75.6-1.62.95-2.51,1.05l.02.03ZM2661.39,733.01c-2.03.25-4.08-.76-5.07-2.69-1.26-2.46-.29-5.47,2.18-6.73,9.41-4.83,19.53-9.22,30.91-13.46,2.58-.96,5.47.35,6.43,2.95.96,2.59-.35,5.47-2.95,6.43-11.01,4.09-20.77,8.34-29.83,12.98-.54.28-1.1.44-1.67.51h0ZM1789.57,840.56c-1.74.21-3.53-.49-4.64-2-6.95-9.41-12.73-19.36-17.17-29.57-1.11-2.53.06-5.48,2.59-6.58,2.53-1.11,5.48.06,6.58,2.59,4.14,9.52,9.53,18.81,16.04,27.61,1.64,2.22,1.17,5.36-1.05,7-.71.53-1.53.84-2.36.95h0ZM3083.96,672.58c-.33.03-.67.05-1.01.02-10.9-.83-21.97-1.5-32.91-1.98-2.76-.12-4.9-2.46-4.78-5.21.12-2.76,2.46-4.9,5.21-4.78,11.05.48,22.23,1.16,33.24,2,2.75.21,4.82,2.61,4.6,5.37-.18,2.41-2.05,4.29-4.37,4.59h.02ZM3017.75,669.66c-.22.03-.45.04-.68.03-10.91-.13-22.01-.08-32.97.15-2.76.06-5.05-2.14-5.1-4.9-.06-2.76,2.13-5.06,4.9-5.1,11.07-.23,22.28-.28,33.3-.15,2.76.03,4.97,2.3,4.95,5.06-.03,2.53-1.94,4.6-4.38,4.9h0ZM2358.16,748.59c-1.86.23-3.77-.59-4.83-2.27-1.49-2.33-.8-5.42,1.53-6.91,10.42-6.64,19.65-12.39,28.23-17.58,2.36-1.43,5.44-.68,6.87,1.69s.68,5.44-1.69,6.87c-8.5,5.15-17.68,10.86-28.03,17.46-.65.41-1.36.65-2.08.75ZM2787.46,693.14c-2.53.31-4.93-1.35-5.5-3.89-.59-2.7,1.12-5.36,3.81-5.96,10.77-2.37,21.75-4.58,32.64-6.59,2.73-.53,5.33,1.29,5.83,4,.5,2.71-1.29,5.33-4,5.83-10.78,2-21.65,4.19-32.32,6.52-.16.04-.31.07-.47.08h0ZM2951.5,671.03c-.12.01-.23.02-.36.03-10.94.58-22.01,1.34-32.89,2.27-2.75.23-5.17-1.81-5.41-4.56-.23-2.75,1.76-5.12,4.56-5.41,11-.93,22.17-1.71,33.22-2.3,2.76-.15,5.11,1.98,5.26,4.73.14,2.64-1.79,4.9-4.37,5.23h0ZM2852.62,681.09c-2.68.33-5.15-1.53-5.56-4.22-.41-2.74,1.47-5.28,4.2-5.7,10.93-1.65,22-3.14,33.01-4.44,2.74-.32,5.23,1.63,5.55,4.38.32,2.74-1.63,5.21-4.35,5.56h-.03c-10.88,1.3-21.86,2.77-32.68,4.41-.05.01-.09.01-.13.02h0ZM1943.99,792.76c-.64.07-1.3.04-1.96-.15-2.66-.74-4.21-3.51-3.46-6.16,2.87-10.24,4.53-20.85,4.93-31.5.1-2.76,2.43-4.9,5.18-4.81,2.76.1,4.92,2.42,4.81,5.18-.43,11.45-2.2,22.83-5.29,33.83-.57,2-2.26,3.38-4.2,3.62h0ZM2698.72,686.77c-1.02.13-2.09-.05-3.05-.59-9.24-5.15-19.13-9.63-29.41-13.32-2.6-.94-3.95-3.79-3.02-6.4.94-2.6,3.79-3.95,6.4-3.02,10.79,3.87,21.2,8.58,30.9,14,2.42,1.35,3.28,4.4,1.94,6.8-.8,1.45-2.23,2.34-3.76,2.53h0ZM2414.94,714.44c-1.97.24-3.97-.7-4.99-2.54-1.34-2.42-.47-5.46,1.95-6.8l2.73-1.51c9.08-4.98,18.13-9.66,26.91-13.9,2.49-1.2,5.48-.16,6.68,2.33,1.2,2.49.16,5.48-2.33,6.68-8.63,4.18-17.53,8.78-26.46,13.67l-2.7,1.48c-.58.31-1.19.51-1.8.59h0ZM1763.75,780.25c-2.68.33-5.15-1.53-5.55-4.22-.17-1.12-.32-2.23-.46-3.36-.62-5.04-.94-10.17-.94-15.23,0-5.28.45-10.67,1.33-15.99.45-2.73,3.03-4.56,5.75-4.12,2.73.45,4.57,3.02,4.11,5.75-.79,4.78-1.2,9.61-1.2,14.35,0,4.65.29,9.36.87,14,.13,1.03.27,2.06.43,3.09.41,2.74-1.47,5.28-4.2,5.7-.05.01-.09.01-.14.02h0ZM2474.62,685.7c-2.19.27-4.38-.95-5.25-3.1-1.03-2.56.21-5.47,2.77-6.51,10.65-4.29,21.27-8.09,31.59-11.29,2.62-.83,5.44.65,6.26,3.29.81,2.64-.65,5.44-3.29,6.26-10.05,3.12-20.41,6.82-30.81,11.02-.41.17-.83.27-1.26.32h-.01ZM2636.63,664.36c-.51.06-1.04.05-1.57-.05-10.58-2.05-21.39-3.33-32.14-3.78-2.76-.12-4.9-2.45-4.78-5.21.12-2.76,2.47-4.91,5.21-4.78,11.25.48,22.56,1.81,33.63,3.96,2.71.53,4.49,3.15,3.96,5.87-.42,2.18-2.2,3.76-4.3,4.01h0ZM2537.89,666.23c-2.56.32-4.98-1.38-5.51-3.95-.56-2.71,1.18-5.36,3.89-5.91,8.03-1.66,16.09-2.99,23.92-3.96h.06c3.11-.39,6.25-.72,9.33-1,2.75-.25,5.19,1.78,5.43,4.53.25,2.75-1.77,5.18-4.53,5.43-3,.27-6.03.61-9.07.97-7.58.94-15.36,2.22-23.12,3.82-.13.03-.27.05-.41.06h0ZM1946.25,727.17c-2.53.31-4.93-1.35-5.5-3.89-2.36-10.76-6.14-20.65-11.22-29.39-1.38-2.39-.58-5.45,1.81-6.84s5.45-.58,6.84,1.81c5.61,9.64,9.76,20.5,12.35,32.27.6,2.7-1.11,5.37-3.81,5.96-.16.04-.32.06-.47.08h0ZM1774.27,716c-.97.12-1.99-.04-2.93-.54-2.45-1.28-3.39-4.3-2.11-6.75,5.29-10.11,12.05-19.52,20.11-27.96,1.9-2,5.08-2.07,7.07-.16,2,1.9,2.07,5.08.16,7.07-7.4,7.77-13.63,16.41-18.48,25.68-.79,1.52-2.25,2.46-3.82,2.64h0ZM1912.86,671.51c-1.26.16-2.58-.16-3.66-.99-4.3-3.29-8.99-6.14-13.94-8.44-4.45-2.07-9.1-3.68-13.84-4.78-2.69-.63-4.36-3.31-3.74-6s3.31-4.36,6-3.74c5.41,1.25,10.73,3.1,15.81,5.46,5.61,2.62,10.92,5.84,15.8,9.57,2.19,1.68,2.61,4.82.93,7.01-.86,1.11-2.07,1.77-3.36,1.92h0ZM1819.47,668.67c-1.93.24-3.91-.67-4.94-2.46-1.38-2.39-.57-5.45,1.82-6.84,10.45-6.07,21.34-10.21,32.37-12.32,2.68-.54,5.33,1.25,5.86,3.97.52,2.71-1.26,5.33-3.97,5.86-9.93,1.9-19.76,5.66-29.24,11.16-.6.35-1.25.56-1.89.64h0Z"/>
        <path class="cls-2" d="M3263.95,702.78c-.61.08-1.26.04-1.89-.13-5.3-1.39-10.71-2.77-16.08-4.08-2.69-.66-4.33-3.36-3.67-6.05.66-2.69,3.36-4.32,6.05-3.67,5.42,1.33,10.88,2.71,16.24,4.12,2.67.71,4.27,3.44,3.57,6.11-.54,2.03-2.25,3.45-4.23,3.69h0Z"/>
        <g>
          <path class="cls-1" d="M2051.04,824.11c-33.08-15.57-18.76,39.84-18.76,39.84,0,0,51.83-24.26,18.76-39.84h0ZM2039.18,849.31c-6.17-2.91-8.82-10.26-5.91-16.44s10.26-8.82,16.43-5.91,8.82,10.26,5.91,16.43c-2.91,6.17-10.27,8.83-16.44,5.92Z"/>
          <path class="cls-1" d="M2048.98,828.48c-5.34-2.51-11.69-.23-14.2,5.11-2.51,5.34-.23,11.69,5.11,14.2s11.69.22,14.2-5.11.22-11.69-5.11-14.2ZM2040.63,846.22c-4.47-2.1-6.39-7.44-4.28-11.91,2.1-4.47,7.44-6.39,11.91-4.28s6.39,7.44,4.28,11.91-7.44,6.39-11.91,4.28Z"/>
          <path class="cls-1" d="M2032.37,873.49c-.98,2.07-3.45,2.96-5.52,1.99s-2.96-3.45-1.99-5.52,3.45-2.96,5.52-1.99,2.96,3.45,1.99,5.52Z"/>
        </g>
        <g>
          <path class="cls-1" d="M2624.77,830.17c-33.08-15.57-18.76,39.84-18.76,39.84,0,0,51.83-24.26,18.76-39.84ZM2612.9,855.36c-6.17-2.91-8.82-10.26-5.91-16.44s10.26-8.82,16.43-5.91,8.82,10.26,5.91,16.43c-2.91,6.17-10.27,8.83-16.44,5.92Z"/>
          <path class="cls-1" d="M2622.71,834.54c-5.34-2.51-11.69-.23-14.2,5.11-2.51,5.34-.23,11.69,5.11,14.2,5.34,2.51,11.69.22,14.2-5.11s.22-11.69-5.11-14.2ZM2614.36,852.28c-4.47-2.1-6.39-7.44-4.28-11.91s7.44-6.39,11.91-4.28c4.47,2.1,6.39,7.44,4.28,11.91s-7.44,6.39-11.91,4.28Z"/>
          <path class="cls-1" d="M2606.1,879.55c-.98,2.07-3.45,2.96-5.52,1.99s-2.96-3.45-1.99-5.52,3.45-2.96,5.52-1.99,2.96,3.45,1.99,5.52Z"/>
        </g>
        <g>
          <path class="cls-1" d="M3055.63,594.69c-33.08-15.57-18.76,39.84-18.76,39.84,0,0,51.83-24.26,18.76-39.84ZM3043.76,619.89c-6.17-2.91-8.82-10.26-5.91-16.44,2.91-6.18,10.26-8.82,16.43-5.91s8.82,10.26,5.91,16.43-10.27,8.83-16.44,5.92Z"/>
          <path class="cls-1" d="M3053.57,599.05c-5.34-2.51-11.69-.23-14.2,5.11s-.23,11.69,5.11,14.2c5.34,2.51,11.69.22,14.2-5.11,2.51-5.33.22-11.69-5.11-14.2ZM3045.21,616.8c-4.47-2.1-6.39-7.44-4.28-11.91s7.44-6.39,11.91-4.28c4.47,2.1,6.39,7.44,4.28,11.91s-7.44,6.39-11.91,4.28Z"/>
          <path class="cls-1" d="M3036.97,644.07c-.98,2.07-3.45,2.96-5.52,1.99s-2.96-3.45-1.99-5.52,3.45-2.96,5.52-1.99,2.96,3.45,1.99,5.52Z"/>
        </g>
      </g>
    </g>
    <g id="_ÎÓÈ_1-3" data-name=" ÎÓÈ 1">
      <g>
        <path class="cls-2" d="M4455.81,680.45c-3.05.38-6.17.63-9.25.75-2.76.11-5.09-2.04-5.2-4.8-.11-2.76,2.04-5.12,4.8-5.2,10.69-.43,21.23-2.55,30.73-6.21,2.59-1,5.48.29,6.46,2.87,1,2.58-.29,5.48-2.87,6.46-7.77,3-16.07,5.05-24.68,6.12h0ZM4414.14,677.6c-.61.08-1.24.03-1.87-.13-11.48-2.99-22.15-7.61-31.73-13.71-2.33-1.48-3.02-4.58-1.53-6.91,1.48-2.33,4.57-3.02,6.91-1.53,8.7,5.54,18.42,9.73,28.88,12.47,2.68.7,4.28,3.43,3.58,6.11-.53,2.05-2.26,3.46-4.23,3.7h0ZM4507.34,657.31c-1.57.19-3.2-.36-4.33-1.62-1.85-2.05-1.68-5.21.37-7.06,7.69-6.92,14.36-15.16,19.79-24.46,1.4-2.38,4.45-3.19,6.85-1.79,2.39,1.39,3.2,4.46,1.79,6.85-5.95,10.2-13.27,19.23-21.73,26.85-.79.71-1.74,1.12-2.73,1.25h0ZM4359.71,642.1c-1.75.22-3.55-.5-4.67-2.03-6.09-8.4-10.49-17.68-13.05-27.6-.38-1.47-.72-2.95-1.03-4.42-.56-2.71,1.18-5.36,3.89-5.91,2.66-.56,5.35,1.18,5.91,3.89.27,1.32.58,2.63.91,3.93,2.25,8.7,6.11,16.85,11.46,24.22,1.62,2.23,1.12,5.36-1.11,6.98-.71.52-1.51.81-2.32.92h0ZM4540.68,601.11c-.62.07-1.26.04-1.9-.13-2.67-.72-4.26-3.45-3.55-6.13,2.7-10.14,4.2-20.75,4.45-31.57.06-2.77,2.37-4.95,5.12-4.88,2.77.06,4.95,2.36,4.88,5.12-.28,11.61-1.89,23.02-4.79,33.91-.54,2.03-2.26,3.44-4.22,3.68ZM3763.59,657.62c-2.69.34-5.16-1.55-5.57-4.23-.4-2.73,1.49-5.28,4.22-5.67,10.31-1.51,21.13-3.55,32.19-6.04,2.68-.6,5.37,1.08,5.98,3.78.61,2.7-1.08,5.37-3.78,5.98-11.3,2.55-22.38,4.63-32.94,6.18-.04,0-.08,0-.12.01h0ZM3730.64,660.93c-.12.02-.25.03-.37.03-11.54.58-22.88.51-33.7-.22-2.76-.18-4.85-2.57-4.66-5.32.18-2.76,2.57-4.83,5.32-4.66,10.44.7,21.38.77,32.53.21,2.76-.14,5.11,1.99,5.25,4.75.13,2.64-1.8,4.9-4.38,5.21h0ZM3367.62,701.58c-2.73.34-5.22-1.59-5.58-4.33-.36-2.74,1.58-5.25,4.32-5.6,10.89-1.41,21.89-2.96,32.69-4.63,2.67-.4,5.29,1.45,5.7,4.18.42,2.73-1.45,5.29-4.18,5.7-10.88,1.67-21.96,3.24-32.93,4.66h-.02s0,.01,0,.01ZM3334.7,705.41s-.07,0-.09.01c-11,1.14-22.14,2.16-33.13,3.04-2.75.22-5.16-1.83-5.38-4.59-.22-2.75,1.81-5.16,4.59-5.38,10.89-.86,21.96-1.87,32.88-3.01,2.74-.29,5.21,1.71,5.5,4.46.28,2.72-1.66,5.15-4.36,5.48h0ZM3828.24,643.23c-2.4.3-4.73-1.19-5.41-3.58-.76-2.65.77-5.43,3.42-6.19,5.47-1.58,11.13-3.29,16.82-5.08,4.83-1.52,9.74-3.12,14.61-4.75,2.63-.89,5.45.53,6.33,3.15.88,2.62-.53,5.45-3.15,6.33-4.92,1.65-9.89,3.27-14.77,4.8-5.76,1.82-11.5,3.55-17.05,5.16-.26.08-.52.13-.78.16h0ZM4345.93,579.07c-.46.06-.93.05-1.41-.02-2.73-.43-4.59-3-4.14-5.73,1.77-11.04,5.32-22.08,10.56-32.83,1.21-2.48,4.21-3.51,6.69-2.31,2.48,1.21,3.51,4.21,2.31,6.69-4.8,9.87-8.05,19.97-9.67,30.03-.36,2.25-2.17,3.91-4.32,4.18h-.02ZM3433.11,691.48c-2.62.33-5.06-1.46-5.53-4.08-.49-2.72,1.32-5.32,4.04-5.8,10.83-1.94,21.73-4.05,32.41-6.24,2.74-.57,5.35,1.19,5.9,3.9.56,2.71-1.19,5.35-3.9,5.9-10.77,2.21-21.75,4.32-32.67,6.28-.1.02-.18.04-.28.05h.01ZM3498.02,678.17c-2.51.31-4.89-1.32-5.48-3.84-.62-2.69,1.05-5.37,3.75-5.99,7.37-1.7,14.81-3.49,22.12-5.31,3.3-.82,6.61-1.66,9.92-2.53,2.67-.69,5.41.9,6.11,3.57s-.9,5.41-3.57,6.11c-3.35.88-6.7,1.73-10.04,2.56-7.37,1.83-14.87,3.63-22.29,5.34-.17.04-.34.07-.52.09h-.01ZM3664.7,656.29c-.53.07-1.08.04-1.63-.07-5.55-1.15-11.08-2.53-16.46-4.08s-10.8-3.4-16.11-5.5c-2.57-1.01-3.84-3.92-2.81-6.49,1.01-2.57,3.92-3.84,6.49-2.81,5.03,1.98,10.14,3.72,15.22,5.2,5.14,1.48,10.42,2.8,15.73,3.9,2.71.57,4.45,3.21,3.88,5.92-.45,2.15-2.21,3.69-4.28,3.95h0ZM3891.06,622.2c-2.24.27-4.46-1-5.29-3.2-.97-2.58.32-5.47,2.91-6.44,10.22-3.86,20.51-7.99,30.59-12.24,2.56-1.08,5.48.12,6.55,2.65,1.08,2.55-.12,5.48-2.65,6.55-10.2,4.31-20.61,8.48-30.95,12.39-.38.14-.78.24-1.16.28h0ZM3562.06,661.14c-2.35.29-4.63-1.12-5.37-3.45-.84-2.63.62-5.45,3.25-6.29,11.13-3.55,21.21-7.17,30.83-11.06,2.56-1.04,5.48.19,6.52,2.76,1.04,2.56-.19,5.48-2.76,6.52-9.85,4-20.17,7.7-31.56,11.32-.3.1-.61.17-.91.2h.01ZM4542.36,535.43c-2.57.32-4.98-1.39-5.51-3.96-2.17-10.6-5.53-20.79-9.98-30.29-1.18-2.5-.09-5.48,2.4-6.65,2.49-1.18,5.47-.1,6.65,2.4,4.79,10.2,8.39,21.15,10.72,32.52.55,2.7-1.19,5.35-3.9,5.9-.13.03-.27.05-.4.07h0ZM3952.11,596.4c-2.09.26-4.2-.84-5.15-2.84-1.17-2.5-.09-5.48,2.41-6.65,9.94-4.65,19.89-9.54,29.57-14.53,2.45-1.27,5.47-.3,6.74,2.16,1.27,2.45.3,5.47-2.15,6.73-9.79,5.05-19.86,9.99-29.91,14.7-.5.23-.99.37-1.51.44h0ZM3623.29,635.94c-1.99.24-4.01-.73-5.02-2.6-1.31-2.44-.39-5.47,2.04-6.78,9.91-5.32,19.15-11.11,27.45-17.22,2.22-1.64,5.35-1.16,6.99,1.06,1.64,2.23,1.16,5.35-1.07,6.99-8.68,6.39-18.32,12.43-28.65,17.98-.56.3-1.16.48-1.74.56h0ZM3603.37,632.05c-1.09.14-2.24-.09-3.26-.71-9.69-6.02-18.82-12.91-27.16-20.47-2.04-1.86-2.2-5.03-.34-7.07s5.02-2.2,7.07-.34c7.87,7.16,16.53,13.67,25.71,19.38,2.34,1.46,3.07,4.54,1.61,6.89-.83,1.33-2.19,2.14-3.64,2.32h0ZM4011.02,566.07c-1.95.24-3.94-.69-4.98-2.51-1.35-2.41-.5-5.45,1.89-6.81,3.55-2.01,7.08-4.03,10.61-6.08,5.74-3.34,11.57-6.82,17.79-10.63,2.36-1.44,5.44-.7,6.88,1.66s.7,5.44-1.66,6.88c-6.29,3.85-12.18,7.36-17.98,10.74-3.57,2.08-7.14,4.13-10.73,6.15-.59.33-1.21.53-1.85.61h.02ZM4374.16,519.97c-1.34.17-2.74-.21-3.85-1.15-2.11-1.79-2.37-4.94-.58-7.05,4.4-5.18,9.17-10.06,14.2-14.5,3.42-3.02,7.07-5.98,10.84-8.79,2.22-1.65,5.35-1.2,7,1.02s1.2,5.35-1.02,7c-3.55,2.65-6.98,5.43-10.2,8.27-4.67,4.12-9.11,8.64-13.19,13.46-.84,1-1.99,1.58-3.2,1.73h0ZM4980.24,438.32c-.53.07-1.08.04-1.64-.08-10.71-2.25-21.6-4.34-32.38-6.24-2.73-.48-4.53-3.07-4.06-5.79.48-2.73,3.06-4.54,5.79-4.06,10.88,1.91,21.89,4.04,32.7,6.3,2.71.57,4.43,3.21,3.87,5.92-.45,2.14-2.22,3.68-4.29,3.94h0ZM3676.21,596.53c-1.43.18-2.94-.27-4.06-1.34-2-1.9-2.08-5.07-.18-7.07,4.67-4.93,9.05-10.14,13-15.51,2.28-3.1,4.45-6.39,6.43-9.79,1.4-2.38,4.46-3.18,6.85-1.79,2.39,1.39,3.2,4.46,1.79,6.85-2.16,3.7-4.53,7.3-7.02,10.68-4.2,5.7-8.85,11.24-13.81,16.47-.83.87-1.9,1.38-3.01,1.52h0ZM4067.64,531.64c-1.86.23-3.75-.6-4.82-2.27-1.49-2.33-.82-5.42,1.51-6.92,8.54-5.47,17.05-11,25.56-16.54l2.24-1.45c2.31-1.5,5.42-.84,6.92,1.47,1.51,2.31.84,5.42-1.47,6.92l-2.24,1.45c-8.52,5.54-17.05,11.08-25.62,16.57-.65.42-1.36.66-2.08.76h0ZM4914.98,426.85c-.43.05-.88.05-1.32-.01-10.83-1.54-21.83-2.92-32.72-4.11-2.74-.3-4.73-2.77-4.43-5.51.3-2.74,2.77-4.73,5.51-4.43,11,1.2,22.11,2.6,33.04,4.15,2.73.39,4.64,2.92,4.24,5.66-.33,2.29-2.15,4-4.34,4.26h0ZM4514.44,476.03c-1.67.21-3.4-.43-4.53-1.84-5.28-6.61-11.22-12.88-17.71-18.68-1.01.29-2.01.58-3.02.88-2.63.77-5.43-.74-6.2-3.4-.7-2.39.46-4.88,2.63-5.91.08-.98.46-1.94,1.13-2.75,1.77-2.13,4.92-2.42,7.04-.66.3.24.59.49.88.74.46-.14.93-.26,1.39-.4,7.42-2.08,14.98-4.09,22.46-5.99,2.65-.66,5.39.94,6.08,3.61.68,2.68-.94,5.39-3.61,6.08-5.83,1.48-11.69,3.03-17.5,4.61,5.12,4.94,9.88,10.16,14.24,15.6,1.72,2.16,1.37,5.3-.79,7.03-.75.6-1.62.95-2.51,1.05l.02.03ZM4426.54,480.09c-2.03.25-4.08-.76-5.07-2.69-1.26-2.46-.29-5.47,2.18-6.73,9.41-4.83,19.53-9.22,30.91-13.46,2.58-.96,5.47.35,6.43,2.95.96,2.59-.35,5.47-2.95,6.43-11.01,4.09-20.77,8.34-29.83,12.98-.54.28-1.1.44-1.67.51h0ZM3554.72,587.64c-1.74.21-3.53-.49-4.64-2-6.95-9.41-12.73-19.36-17.17-29.57-1.11-2.53.06-5.48,2.59-6.58,2.53-1.11,5.48.06,6.58,2.59,4.14,9.52,9.53,18.81,16.04,27.61,1.64,2.22,1.17,5.36-1.05,7-.71.53-1.53.84-2.36.95h0ZM4849.11,419.66c-.33.03-.67.05-1.01.02-10.9-.83-21.97-1.5-32.91-1.98-2.76-.12-4.9-2.46-4.78-5.21.12-2.76,2.46-4.9,5.21-4.78,11.05.48,22.23,1.16,33.24,2,2.75.21,4.82,2.61,4.6,5.37-.18,2.41-2.05,4.29-4.37,4.59h.02ZM4782.9,416.74c-.22.03-.45.04-.68.03-10.91-.13-22.01-.08-32.97.15-2.76.06-5.05-2.14-5.1-4.9-.06-2.76,2.13-5.06,4.9-5.1,11.07-.23,22.28-.28,33.3-.15,2.76.03,4.97,2.3,4.95,5.06-.03,2.53-1.94,4.6-4.38,4.9h0ZM4123.31,495.67c-1.86.23-3.77-.59-4.83-2.27-1.49-2.33-.8-5.42,1.53-6.91,10.42-6.64,19.65-12.39,28.23-17.58,2.36-1.43,5.44-.68,6.87,1.69s.68,5.44-1.69,6.87c-8.5,5.15-17.68,10.86-28.03,17.46-.65.41-1.36.65-2.08.75ZM4552.61,440.21c-2.53.31-4.93-1.35-5.5-3.89-.59-2.7,1.12-5.36,3.81-5.96,10.77-2.37,21.75-4.58,32.64-6.59,2.73-.53,5.33,1.29,5.83,4,.5,2.71-1.29,5.33-4,5.83-10.78,2-21.65,4.19-32.32,6.52-.16.04-.31.07-.47.08h0ZM4716.65,418.1c-.12.01-.23.02-.36.03-10.94.58-22.01,1.34-32.89,2.27-2.75.23-5.17-1.81-5.41-4.56-.23-2.75,1.76-5.12,4.56-5.41,11-.93,22.17-1.71,33.22-2.3,2.76-.15,5.11,1.98,5.26,4.73.14,2.64-1.79,4.9-4.37,5.23h0ZM4617.77,428.16c-2.68.33-5.15-1.53-5.56-4.22-.41-2.74,1.47-5.28,4.2-5.7,10.93-1.65,22-3.14,33.01-4.44,2.74-.32,5.23,1.63,5.55,4.38.32,2.74-1.63,5.21-4.35,5.56h-.03c-10.88,1.3-21.86,2.77-32.68,4.41-.05.01-.09.01-.13.02h0ZM3709.14,539.84c-.64.07-1.3.04-1.96-.15-2.66-.74-4.21-3.51-3.46-6.16,2.87-10.24,4.53-20.85,4.93-31.5.1-2.76,2.43-4.9,5.18-4.81,2.76.1,4.92,2.42,4.81,5.18-.43,11.45-2.2,22.83-5.29,33.83-.57,2-2.26,3.38-4.2,3.62h0ZM4463.87,433.84c-1.02.13-2.09-.05-3.05-.59-9.24-5.15-19.13-9.63-29.41-13.32-2.6-.94-3.95-3.79-3.02-6.4.94-2.6,3.79-3.95,6.4-3.02,10.79,3.87,21.2,8.58,30.9,14,2.42,1.35,3.28,4.4,1.94,6.8-.8,1.45-2.23,2.34-3.76,2.53h0ZM4180.09,461.51c-1.97.24-3.97-.7-4.99-2.54-1.34-2.42-.47-5.46,1.95-6.8l2.73-1.51c9.08-4.98,18.13-9.66,26.91-13.9,2.49-1.2,5.48-.16,6.68,2.33,1.2,2.49.16,5.48-2.33,6.68-8.63,4.18-17.53,8.78-26.46,13.67l-2.7,1.48c-.58.31-1.19.51-1.8.59h0ZM3528.9,527.32c-2.68.33-5.15-1.53-5.55-4.22-.17-1.12-.32-2.23-.46-3.36-.62-5.04-.94-10.17-.94-15.23,0-5.28.45-10.67,1.33-15.99.45-2.73,3.03-4.56,5.75-4.12,2.73.45,4.57,3.02,4.11,5.75-.79,4.78-1.2,9.61-1.2,14.35,0,4.65.29,9.36.87,14,.13,1.03.27,2.06.43,3.09.41,2.74-1.47,5.28-4.2,5.7-.05.01-.09.01-.14.02h0ZM4239.77,432.78c-2.19.27-4.38-.95-5.25-3.1-1.03-2.56.21-5.47,2.77-6.51,10.65-4.29,21.27-8.09,31.59-11.29,2.62-.83,5.44.65,6.26,3.29.81,2.64-.65,5.44-3.29,6.26-10.05,3.12-20.41,6.82-30.81,11.02-.41.17-.83.27-1.26.32h-.01ZM4401.78,411.44c-.51.06-1.04.05-1.57-.05-10.58-2.05-21.39-3.33-32.14-3.78-2.76-.12-4.9-2.45-4.78-5.21.12-2.76,2.47-4.91,5.21-4.78,11.25.48,22.56,1.81,33.63,3.96,2.71.53,4.49,3.15,3.96,5.87-.42,2.18-2.2,3.76-4.3,4.01h0ZM4303.04,413.3c-2.56.32-4.98-1.38-5.51-3.95-.56-2.71,1.18-5.36,3.89-5.91,8.03-1.66,16.09-2.99,23.92-3.96h.06c3.11-.39,6.25-.72,9.33-1,2.75-.25,5.19,1.78,5.43,4.53.25,2.75-1.77,5.18-4.53,5.43-3,.27-6.03.61-9.07.97-7.58.94-15.36,2.22-23.12,3.82-.13.03-.27.05-.41.06h0ZM3711.4,474.24c-2.53.31-4.93-1.35-5.5-3.89-2.36-10.76-6.14-20.65-11.22-29.39-1.38-2.39-.58-5.45,1.81-6.84s5.45-.58,6.84,1.81c5.61,9.64,9.76,20.5,12.35,32.27.6,2.7-1.11,5.37-3.81,5.96-.16.04-.32.06-.47.08h0ZM3539.43,463.07c-.97.12-1.99-.04-2.93-.54-2.45-1.28-3.39-4.3-2.11-6.75,5.29-10.11,12.05-19.52,20.11-27.96,1.9-2,5.08-2.07,7.07-.16,2,1.9,2.07,5.08.16,7.07-7.4,7.77-13.63,16.41-18.48,25.68-.79,1.52-2.25,2.46-3.82,2.64h0ZM3678.01,418.58c-1.26.16-2.58-.16-3.66-.99-4.3-3.29-8.99-6.14-13.94-8.44-4.45-2.07-9.1-3.68-13.84-4.78-2.69-.63-4.36-3.31-3.74-6s3.31-4.36,6-3.74c5.41,1.25,10.73,3.1,15.81,5.46,5.61,2.62,10.92,5.84,15.8,9.57,2.19,1.68,2.61,4.82.93,7.01-.86,1.11-2.07,1.77-3.36,1.92h0ZM3584.62,415.75c-1.93.24-3.91-.67-4.94-2.46-1.38-2.39-.57-5.45,1.82-6.84,10.45-6.07,21.34-10.21,32.37-12.32,2.68-.54,5.33,1.25,5.86,3.97.52,2.71-1.26,5.33-3.97,5.86-9.93,1.9-19.76,5.66-29.24,11.16-.6.35-1.25.56-1.89.64h0Z"/>
        <path class="cls-2" d="M5029.1,449.86c-.61.08-1.26.04-1.89-.13-5.3-1.39-10.71-2.77-16.08-4.08-2.69-.66-4.33-3.36-3.67-6.05.66-2.69,3.36-4.32,6.05-3.67,5.42,1.33,10.88,2.71,16.24,4.12,2.67.71,4.27,3.44,3.57,6.11-.54,2.03-2.25,3.45-4.23,3.69h0Z"/>
        <g>
          <path class="cls-1" d="M3816.19,571.18c-33.08-15.57-18.76,39.84-18.76,39.84,0,0,51.83-24.26,18.76-39.84h0ZM3804.33,596.38c-6.17-2.91-8.82-10.26-5.91-16.44s10.26-8.82,16.43-5.91,8.82,10.26,5.91,16.43c-2.91,6.17-10.27,8.83-16.44,5.92Z"/>
          <path class="cls-1" d="M3814.13,575.55c-5.34-2.51-11.69-.23-14.2,5.11-2.51,5.34-.23,11.69,5.11,14.2s11.69.22,14.2-5.11.22-11.69-5.11-14.2ZM3805.78,593.29c-4.47-2.1-6.39-7.44-4.28-11.91,2.1-4.47,7.44-6.39,11.91-4.28s6.39,7.44,4.28,11.91-7.44,6.39-11.91,4.28Z"/>
          <path class="cls-1" d="M3797.52,620.56c-.98,2.07-3.45,2.96-5.52,1.99s-2.96-3.45-1.99-5.52,3.45-2.96,5.52-1.99,2.96,3.45,1.99,5.52Z"/>
        </g>
        <g>
          <path class="cls-1" d="M4389.92,577.24c-33.08-15.57-18.76,39.84-18.76,39.84,0,0,51.83-24.26,18.76-39.84ZM4378.06,602.44c-6.17-2.91-8.82-10.26-5.91-16.44s10.26-8.82,16.43-5.91,8.82,10.26,5.91,16.43c-2.91,6.17-10.27,8.83-16.44,5.92Z"/>
          <path class="cls-1" d="M4387.86,581.61c-5.34-2.51-11.69-.23-14.2,5.11-2.51,5.34-.23,11.69,5.11,14.2,5.34,2.51,11.69.22,14.2-5.11s.22-11.69-5.11-14.2ZM4379.51,599.35c-4.47-2.1-6.39-7.44-4.28-11.91s7.44-6.39,11.91-4.28c4.47,2.1,6.39,7.44,4.28,11.91s-7.44,6.39-11.91,4.28Z"/>
          <path class="cls-1" d="M4371.25,626.62c-.98,2.07-3.45,2.96-5.52,1.99s-2.96-3.45-1.99-5.52,3.45-2.96,5.52-1.99,2.96,3.45,1.99,5.52Z"/>
        </g>
        <g>
          <path class="cls-1" d="M4820.78,341.77c-33.08-15.57-18.76,39.84-18.76,39.84,0,0,51.83-24.26,18.76-39.84ZM4808.91,366.96c-6.17-2.91-8.82-10.26-5.91-16.44,2.91-6.18,10.26-8.82,16.43-5.91s8.82,10.26,5.91,16.43-10.27,8.83-16.44,5.92Z"/>
          <path class="cls-1" d="M4818.72,346.13c-5.34-2.51-11.69-.23-14.2,5.11s-.23,11.69,5.11,14.2c5.34,2.51,11.69.22,14.2-5.11,2.51-5.33.22-11.69-5.11-14.2ZM4810.37,363.88c-4.47-2.1-6.39-7.44-4.28-11.91s7.44-6.39,11.91-4.28c4.47,2.1,6.39,7.44,4.28,11.91s-7.44,6.39-11.91,4.28Z"/>
          <path class="cls-1" d="M4802.12,391.14c-.98,2.07-3.45,2.96-5.52,1.99s-2.96-3.45-1.99-5.52,3.45-2.96,5.52-1.99,2.96,3.45,1.99,5.52Z"/>
        </g>
      </g>
    </g>
  </g>
</svg>