<?xml version="1.0" encoding="UTF-8"?>
<svg id="Layer_2" data-name="Layer 2" xmlns="http://www.w3.org/2000/svg" viewBox="0 0 724.01 211.73">
  <defs>
    <style>
      .cls-1 {
        fill: none;
        stroke: #231f20;
        stroke-width: 5px;
      }

      .cls-2 {
        fill: #b23f2c;
      }

      .cls-3 {
        font-family: HelveticaNeue-CondensedBlack, 'Helvetica Neue';
        font-size: 68.39px;
        font-weight: 800;
        letter-spacing: .06em;
      }
    </style>
  </defs>
  <g id="Layer_1-2" data-name="Layer 1">
    <g>
      <g>
        <polygon class="cls-2" points="31.95 1.78 0 1.78 0 117.03 80.91 117.03 80.91 90.27 31.95 90.27 31.95 1.78"/>
        <path class="cls-2" d="M123.45,1.78l-38.37,115.25h35.19l5.81-19.65h37.83l5.71,19.65h36.05L166.69,1.78h-43.24ZM133.33,72.94l.18-.62c2.84-9.69,5.54-19.38,8.12-29.05,1.15-4.3,2.29-8.67,3.43-13.09,1.12,4.42,2.26,8.79,3.42,13.09,2.6,9.67,5.32,19.35,8.16,29.05l.18.62h-23.49Z"/>
        <path class="cls-2" d="M288.91,37.82c-.88,3.09-1.88,6.95-3.02,11.56-1.13,4.62-2.31,9.48-3.52,14.58-.7,2.96-1.37,5.83-2.01,8.64-.64-2.81-1.31-5.68-2.01-8.64-1.21-5.11-2.41-9.97-3.6-14.58-1.19-4.61-2.22-8.47-3.09-11.56l-10.37-36.05h-48.34v115.25h31.56v-44.55c0-2.63-.07-6.06-.19-10.29-.13-4.23-.27-8.84-.43-13.85-.14-4.46-.26-8.97-.38-13.51,1.16,4.55,2.32,9.06,3.48,13.51,1.29,4.95,2.53,9.51,3.71,13.69,1.19,4.18,2.19,7.66,3.02,10.44l13.61,44.55h25.99l13.38-44.55c.82-2.78,1.8-6.27,2.94-10.44,1.13-4.18,2.33-8.74,3.6-13.69,1.26-4.95,2.53-9.97,3.79-15.04.03-.11.05-.22.08-.33,0,.07,0,.14,0,.22-.13,5.1-.27,10.16-.43,15.16-.15,5-.3,9.62-.43,13.85-.13,4.23-.19,7.66-.19,10.29v44.55h31.56V1.78h-48.5l-10.21,36.05Z"/>
        <path class="cls-2" d="M441.79,60.41c-3.94-2.37-8.39-3.64-13.34-3.79v-.46c4.49-.88,8.39-2.49,11.72-4.83,3.33-2.35,5.92-5.3,7.77-8.86s2.78-7.53,2.78-11.91c0-5.67-1.52-10.66-4.56-14.97-3.04-4.3-7.56-7.68-13.54-10.13-5.98-2.45-13.36-3.67-22.12-3.67h-49.97v115.25h54.3c8.35,0,15.5-1.4,21.43-4.22,5.93-2.81,10.48-6.68,13.65-11.6,3.17-4.92,4.76-10.53,4.76-16.82,0-5.41-1.16-10.17-3.48-14.27-2.32-4.1-5.45-7.34-9.4-9.71ZM391.79,25.99h14.62c3.66,0,6.6.98,8.82,2.94,2.22,1.96,3.33,4.59,3.33,7.89,0,2.22-.5,4.14-1.51,5.76-1.01,1.62-2.42,2.88-4.25,3.75-1.83.88-3.98,1.31-6.46,1.31h-14.54v-21.66ZM418.12,89.65c-2.4,2.06-5.69,3.09-9.86,3.09h-16.48v-23.13h16.55c2.73,0,5.11.46,7.12,1.39,2.01.93,3.56,2.27,4.64,4.02,1.08,1.75,1.62,3.84,1.62,6.27,0,3.51-1.2,6.29-3.6,8.35Z"/>
        <path class="cls-2" d="M545.64,6.81c-8.46-4.54-17.92-6.81-28.39-6.81s-19.94,2.27-28.43,6.81c-8.48,4.54-15.2,11.24-20.15,20.11-4.95,8.87-7.43,19.72-7.43,32.56s2.47,23.53,7.43,32.37c4.95,8.84,11.67,15.55,20.15,20.11,8.48,4.56,17.96,6.85,28.43,6.85s19.93-2.27,28.39-6.81c8.46-4.54,15.17-11.23,20.15-20.07,4.98-8.84,7.46-19.66,7.46-32.45s-2.49-23.69-7.46-32.56c-4.98-8.87-11.69-15.57-20.15-20.11ZM538.14,76.54c-1.81,4.72-4.47,8.33-8.01,10.83-3.53,2.5-7.83,3.75-12.88,3.75s-9.33-1.25-12.84-3.75c-3.51-2.5-6.18-6.11-8.01-10.83-1.83-4.72-2.75-10.4-2.75-17.06s.92-12.43,2.75-17.17c1.83-4.74,4.5-8.37,8.01-10.87,3.51-2.5,7.79-3.75,12.84-3.75s9.35,1.25,12.88,3.75c3.53,2.5,6.2,6.12,8.01,10.87,1.8,4.75,2.71,10.47,2.71,17.17s-.9,12.34-2.71,17.06Z"/>
        <polygon class="cls-2" points="583.62 49.89 604.58 49.89 617.58 1.78 588.8 1.78 583.62 49.89"/>
        <path class="cls-2" d="M721.84,69.19c-1.44-3.64-3.67-6.85-6.69-9.63s-6.88-5.17-11.6-7.16c-4.72-1.98-10.35-3.6-16.9-4.83l-9.28-1.78c-3.92-.72-7.12-1.57-9.59-2.55-2.48-.98-4.29-2.13-5.45-3.44s-1.74-2.87-1.74-4.68c0-1.91.62-3.58,1.86-5.03,1.24-1.44,2.99-2.58,5.26-3.4,2.27-.82,4.92-1.24,7.97-1.24,4.85,0,8.71,1.14,11.6,3.4,2.89,2.27,4.51,5.39,4.87,9.36h29.63c-.21-7.94-2.2-14.76-6-20.46-3.79-5.7-9.13-10.08-16.01-13.15-6.88-3.07-15.1-4.6-24.64-4.6s-17.44,1.55-24.48,4.64c-7.04,3.09-12.54,7.39-16.51,12.88-3.97,5.49-5.96,11.9-5.96,19.22,0,8.66,2.94,15.81,8.82,21.43,5.88,5.62,14.26,9.49,25.14,11.6l11.53,2.24c4.33.88,7.85,1.83,10.56,2.86,2.71,1.03,4.71,2.23,5.99,3.6,1.29,1.37,1.93,2.98,1.93,4.83,0,1.96-.67,3.7-2.01,5.22-1.34,1.52-3.25,2.71-5.72,3.56-2.48.85-5.42,1.28-8.82,1.28-3.92,0-7.31-.61-10.17-1.82-2.86-1.21-5.09-2.94-6.69-5.18-1.6-2.24-2.48-4.96-2.63-8.16h-30.24c0,8.82,1.95,16.26,5.84,22.32,3.89,6.06,9.53,10.62,16.9,13.69,7.37,3.07,16.32,4.6,26.84,4.6s19.02-1.46,26.26-4.37c7.24-2.91,12.77-7.15,16.59-12.72,3.82-5.57,5.72-12.32,5.72-20.27,0-4.54-.72-8.62-2.17-12.26Z"/>
      </g>
      <g>
        <polygon class="cls-1" points="31.95 1.78 0 1.78 0 117.03 80.91 117.03 80.91 90.27 31.95 90.27 31.95 1.78"/>
        <path class="cls-1" d="M123.45,1.78l-38.37,115.25h35.19l5.81-19.65h37.83l5.71,19.65h36.05L166.69,1.78h-43.24ZM133.33,72.94l.18-.62c2.84-9.69,5.54-19.38,8.12-29.05,1.15-4.3,2.29-8.67,3.43-13.09,1.12,4.42,2.26,8.79,3.42,13.09,2.6,9.67,5.32,19.35,8.16,29.05l.18.62h-23.49Z"/>
        <path class="cls-1" d="M288.91,37.82c-.88,3.09-1.88,6.95-3.02,11.56-1.13,4.62-2.31,9.48-3.52,14.58-.7,2.96-1.37,5.83-2.01,8.64-.64-2.81-1.31-5.68-2.01-8.64-1.21-5.11-2.41-9.97-3.6-14.58-1.19-4.61-2.22-8.47-3.09-11.56l-10.37-36.05h-48.34v115.25h31.56v-44.55c0-2.63-.07-6.06-.19-10.29-.13-4.23-.27-8.84-.43-13.85-.14-4.46-.26-8.97-.38-13.51,1.16,4.55,2.32,9.06,3.48,13.51,1.29,4.95,2.53,9.51,3.71,13.69,1.19,4.18,2.19,7.66,3.02,10.44l13.61,44.55h25.99l13.38-44.55c.82-2.78,1.8-6.27,2.94-10.44,1.13-4.18,2.33-8.74,3.6-13.69,1.26-4.95,2.53-9.97,3.79-15.04.03-.11.05-.22.08-.33,0,.07,0,.14,0,.22-.13,5.1-.27,10.16-.43,15.16-.15,5-.3,9.62-.43,13.85-.13,4.23-.19,7.66-.19,10.29v44.55h31.56V1.78h-48.5l-10.21,36.05Z"/>
        <path class="cls-1" d="M441.79,60.41c-3.94-2.37-8.39-3.64-13.34-3.79v-.46c4.49-.88,8.39-2.49,11.72-4.83,3.33-2.35,5.92-5.3,7.77-8.86s2.78-7.53,2.78-11.91c0-5.67-1.52-10.66-4.56-14.97-3.04-4.3-7.56-7.68-13.54-10.13-5.98-2.45-13.36-3.67-22.12-3.67h-49.97v115.25h54.3c8.35,0,15.5-1.4,21.43-4.22,5.93-2.81,10.48-6.68,13.65-11.6,3.17-4.92,4.76-10.53,4.76-16.82,0-5.41-1.16-10.17-3.48-14.27-2.32-4.1-5.45-7.34-9.4-9.71ZM391.79,25.99h14.62c3.66,0,6.6.98,8.82,2.94,2.22,1.96,3.33,4.59,3.33,7.89,0,2.22-.5,4.14-1.51,5.76-1.01,1.62-2.42,2.88-4.25,3.75-1.83.88-3.98,1.31-6.46,1.31h-14.54v-21.66ZM418.12,89.65c-2.4,2.06-5.69,3.09-9.86,3.09h-16.48v-23.13h16.55c2.73,0,5.11.46,7.12,1.39,2.01.93,3.56,2.27,4.64,4.02,1.08,1.75,1.62,3.84,1.62,6.27,0,3.51-1.2,6.29-3.6,8.35Z"/>
        <path class="cls-1" d="M545.64,6.81c-8.46-4.54-17.92-6.81-28.39-6.81s-19.94,2.27-28.43,6.81c-8.48,4.54-15.2,11.24-20.15,20.11-4.95,8.87-7.43,19.72-7.43,32.56s2.47,23.53,7.43,32.37c4.95,8.84,11.67,15.55,20.15,20.11,8.48,4.56,17.96,6.85,28.43,6.85s19.93-2.27,28.39-6.81c8.46-4.54,15.17-11.23,20.15-20.07,4.98-8.84,7.46-19.66,7.46-32.45s-2.49-23.69-7.46-32.56c-4.98-8.87-11.69-15.57-20.15-20.11ZM538.14,76.54c-1.81,4.72-4.47,8.33-8.01,10.83-3.53,2.5-7.83,3.75-12.88,3.75s-9.33-1.25-12.84-3.75c-3.51-2.5-6.18-6.11-8.01-10.83-1.83-4.72-2.75-10.4-2.75-17.06s.92-12.43,2.75-17.17c1.83-4.74,4.5-8.37,8.01-10.87,3.51-2.5,7.79-3.75,12.84-3.75s9.35,1.25,12.88,3.75c3.53,2.5,6.2,6.12,8.01,10.87,1.8,4.75,2.71,10.47,2.71,17.17s-.9,12.34-2.71,17.06Z"/>
        <polygon class="cls-1" points="583.62 49.89 604.58 49.89 617.58 1.78 588.8 1.78 583.62 49.89"/>
        <path class="cls-1" d="M721.84,69.19c-1.44-3.64-3.67-6.85-6.69-9.63s-6.88-5.17-11.6-7.16c-4.72-1.98-10.35-3.6-16.9-4.83l-9.28-1.78c-3.92-.72-7.12-1.57-9.59-2.55-2.48-.98-4.29-2.13-5.45-3.44s-1.74-2.87-1.74-4.68c0-1.91.62-3.58,1.86-5.03,1.24-1.44,2.99-2.58,5.26-3.4,2.27-.82,4.92-1.24,7.97-1.24,4.85,0,8.71,1.14,11.6,3.4,2.89,2.27,4.51,5.39,4.87,9.36h29.63c-.21-7.94-2.2-14.76-6-20.46-3.79-5.7-9.13-10.08-16.01-13.15-6.88-3.07-15.1-4.6-24.64-4.6s-17.44,1.55-24.48,4.64c-7.04,3.09-12.54,7.39-16.51,12.88-3.97,5.49-5.96,11.9-5.96,19.22,0,8.66,2.94,15.81,8.82,21.43,5.88,5.62,14.26,9.49,25.14,11.6l11.53,2.24c4.33.88,7.85,1.83,10.56,2.86,2.71,1.03,4.71,2.23,5.99,3.6,1.29,1.37,1.93,2.98,1.93,4.83,0,1.96-.67,3.7-2.01,5.22-1.34,1.52-3.25,2.71-5.72,3.56-2.48.85-5.42,1.28-8.82,1.28-3.92,0-7.31-.61-10.17-1.82-2.86-1.21-5.09-2.94-6.69-5.18-1.6-2.24-2.48-4.96-2.63-8.16h-30.24c0,8.82,1.95,16.26,5.84,22.32,3.89,6.06,9.53,10.62,16.9,13.69,7.37,3.07,16.32,4.6,26.84,4.6s19.02-1.46,26.26-4.37c7.24-2.91,12.77-7.15,16.59-12.72,3.82-5.57,5.72-12.32,5.72-20.27,0-4.54-.72-8.62-2.17-12.26Z"/>
      </g>
    </g>
    <text class="cls-3" transform="translate(0 187.31)"><tspan x="0" y="0">GARAGE DOOR SERVICE</tspan></text>
  </g>
</svg>